<svg width="4096" height="2365" viewBox="0 0 4096 2365" fill="none" xmlns="http://www.w3.org/2000/svg">
<g clip-path="url(#clip0_1158_315)">
<rect width="4096" height="2365" fill="white"/>
<rect width="4096" height="2365" fill="white"/>
<path d="M1153.75 1284.88C1155.45 1283.93 1156.82 1283 1157.8 1282.1L1162.4 1277.91C1168.49 1272.36 1187.41 1260.58 1199.52 1260.58H1494.63C1499.72 1260.58 1502.64 1261.65 1502.64 1263.5L1502.64 1281.03C1502.64 1282.59 1500.58 1284.59 1496.85 1286.66L1420.24 1329.13C1411.72 1333.85 1396.91 1337.68 1387.17 1337.68H1076.13C1066.39 1337.68 1065.39 1333.85 1073.92 1329.13L1153.75 1284.88Z" fill="#0029B9"/>
<path d="M1149.68 1269.13C1158.2 1264.41 1173.01 1260.58 1182.75 1260.58H1493.79C1503.54 1260.58 1504.53 1264.41 1496.01 1269.13L1421.32 1310.54C1417.06 1312.9 1409.66 1314.81 1404.78 1314.81H1084.92C1075.18 1314.81 1074.19 1310.98 1082.71 1306.26L1149.68 1269.13Z" fill="#315EFE"/>
<path d="M1140.94 1215.51C1146.73 1207.67 1159.32 1201.32 1169.06 1201.32H1480.1C1489.85 1201.32 1493.05 1207.67 1487.27 1215.51L1412.81 1316.36C1407.03 1324.2 1394.44 1330.55 1384.7 1330.55H1073.65C1063.91 1330.55 1060.7 1324.2 1066.49 1316.36L1140.94 1215.51Z" fill="#9BB1FF"/>
<path d="M1119.01 1107.96C1121.4 1098.51 1131.23 1090.86 1140.97 1090.86H1452.01C1461.75 1090.86 1467.72 1098.51 1465.34 1107.96L1412.6 1317C1410.22 1326.44 1400.39 1334.1 1390.65 1334.1H1079.6C1069.86 1334.1 1063.89 1326.44 1066.28 1317L1119.01 1107.96Z" fill="#CDD8FE"/>
<path d="M987.968 1032.78C989.998 1027.93 994.824 1025 1000.79 1025H1321.91C1331.65 1025 1341.48 1032.66 1343.86 1042.1L1412.26 1313.2C1413.69 1318.89 1412.12 1326.2 1408.06 1329.38L1404.12 1332.47C1401.54 1334.49 1398.13 1335.51 1394.37 1335.38L1084.09 1334.84C1075.05 1334.53 1066.04 1325.75 1063.15 1317.09L1015.12 1181.05L982.141 1053C981.295 1049.68 984.494 1041.09 985.659 1038.3L987.968 1032.78Z" fill="#0029B9"/>
<path d="M983.336 1057.35C980.953 1047.9 986.918 1040.25 996.66 1040.25H1307.71C1317.45 1040.25 1327.28 1047.9 1329.66 1057.35L1396.03 1320.44C1398.42 1329.89 1392.45 1337.54 1382.71 1337.54H1071.66C1061.92 1337.54 1052.09 1329.89 1049.71 1320.44L983.336 1057.35Z" fill="#315EFE"/>
<ellipse cx="42.8605" cy="42.8607" rx="42.8605" ry="42.8607" transform="matrix(1 0 0.275636 0.961262 1055.17 1091.99)" fill="#0029B9"/>
<ellipse cx="42.8605" cy="42.8607" rx="42.8605" ry="42.8607" transform="matrix(1 0 0.275636 0.961262 1043.52 1098.58)" fill="#4870FF"/>
<ellipse cx="42.8605" cy="42.8607" rx="42.8605" ry="42.8607" transform="matrix(1 0 0.275636 0.961262 1088.42 1207.38)" fill="#0029B9"/>
<ellipse cx="42.8605" cy="42.8607" rx="42.8605" ry="42.8607" transform="matrix(1 0 0.275636 0.961262 1076.77 1213.98)" fill="#4870FF"/>
<ellipse cx="42.8605" cy="42.8607" rx="42.8605" ry="42.8607" transform="matrix(1 0 0.275636 0.961262 1184.17 1091.99)" fill="#0029B9"/>
<ellipse cx="42.8605" cy="42.8607" rx="42.8605" ry="42.8607" transform="matrix(1 0 0.275636 0.961262 1172.52 1098.58)" fill="#4870FF"/>
<ellipse cx="42.8605" cy="42.8607" rx="42.8605" ry="42.8607" transform="matrix(1 0 0.275636 0.961262 1217.41 1207.38)" fill="#0029B9"/>
<ellipse cx="42.8605" cy="42.8607" rx="42.8605" ry="42.8607" transform="matrix(1 0 0.275636 0.961262 1205.76 1213.98)" fill="#4870FF"/>
<path d="M1629.24 1039.23V1222.83C1629.24 1243.9 1635.17 1260.63 1647.04 1273.03C1658.91 1285.43 1674.84 1291.63 1694.84 1291.63C1714.57 1291.63 1730.44 1285.43 1742.44 1273.03C1754.44 1260.63 1760.44 1243.9 1760.44 1222.83V1039.23H1789.64V1225.23C1789.64 1243.37 1785.57 1259.43 1777.44 1273.43C1769.31 1287.43 1758.04 1298.3 1743.64 1306.03C1729.24 1313.77 1712.97 1317.63 1694.84 1317.63C1676.71 1317.63 1660.44 1313.77 1646.04 1306.03C1631.64 1298.3 1620.31 1287.37 1612.04 1273.23C1603.77 1259.1 1599.64 1243.1 1599.64 1225.23V1039.23H1629.24ZM2296.84 1109.63C2320.57 1109.63 2338.77 1115.37 2351.44 1126.83C2364.11 1138.3 2370.44 1155.1 2370.44 1177.23V1315.23H2343.64V1293.63C2337.51 1301.9 2329.91 1307.97 2320.84 1311.83C2311.77 1315.7 2300.71 1317.63 2287.64 1317.63C2266.31 1317.63 2249.77 1312.57 2238.04 1302.43C2226.31 1292.3 2220.44 1277.5 2220.44 1258.03C2220.44 1239.9 2226.37 1225.7 2238.24 1215.43C2250.11 1205.17 2266.84 1200.03 2288.44 1200.03H2343.24V1176.83C2343.24 1162.17 2339.24 1151.1 2331.24 1143.63C2323.24 1136.17 2311.91 1132.43 2297.24 1132.43C2283.37 1132.43 2272.51 1135.57 2264.64 1141.83C2256.77 1148.1 2252.84 1156.7 2252.84 1167.63V1168.83H2226.44V1166.83C2226.44 1149.5 2232.71 1135.63 2245.24 1125.23C2257.77 1114.83 2274.97 1109.63 2296.84 1109.63ZM1878.84 1039.23V1260.43C1878.84 1270.83 1880.84 1278.43 1884.84 1283.23C1888.84 1288.03 1895.37 1290.43 1904.44 1290.43H1920.84V1315.23H1901.64C1885.37 1315.23 1872.97 1310.7 1864.44 1301.63C1855.91 1292.57 1851.64 1279.37 1851.64 1262.03V1039.23H1878.84ZM2003.64 1053.23V1112.43H2049.24V1134.03H2003.64V1263.63C2003.64 1282.03 2012.31 1291.23 2029.64 1291.23H2045.64V1315.23H2025.24C2009.77 1315.23 1997.71 1310.77 1989.04 1301.83C1980.37 1292.9 1976.04 1280.57 1976.04 1264.83V1134.03H1944.44V1112.43H1976.04V1066.03L2003.64 1053.23ZM2176.84 1109.63C2181.91 1109.63 2186.84 1110.03 2191.64 1110.83V1138.03C2185.24 1135.9 2178.31 1134.83 2170.84 1134.83C2156.97 1134.83 2145.71 1139.63 2137.04 1149.23C2128.37 1158.83 2124.04 1171.37 2124.04 1186.83V1315.23H2096.84V1112.43H2123.64V1139.63C2129.24 1129.5 2136.64 1121.97 2145.84 1117.03C2155.04 1112.1 2165.37 1109.63 2176.84 1109.63ZM2343.24 1220.03H2292.44C2262.57 1220.03 2247.64 1232.57 2247.64 1257.63C2247.64 1282.97 2262.44 1295.63 2292.04 1295.63C2309.91 1295.63 2322.91 1291.57 2331.04 1283.43C2339.17 1275.3 2343.24 1262.97 2343.24 1246.43V1220.03Z" fill="#1D0B42"/>
<path d="M2510.44 1140L2490.34 1148.95L2520.84 1217.46L2540.94 1208.52L2510.44 1140Z" fill="#F9F9F9"/>
<path d="M2515.84 1203H2476.64V1315H2424.24V1039H2529.04C2555.84 1039 2577.44 1046.6 2593.44 1061.4C2609.44 1076.2 2617.44 1096.2 2617.44 1121.4C2617.44 1139.8 2613.04 1155 2604.64 1167.4C2596.24 1180.2 2584.24 1189.4 2568.64 1195L2628.64 1315H2568.24L2515.84 1203ZM2476.64 1159.4H2526.24C2538.24 1159.4 2547.84 1156.2 2554.64 1149.8C2561.44 1143.4 2565.04 1133.8 2565.04 1121.4C2565.04 1110.2 2561.44 1101.4 2554.64 1094.6C2547.44 1088.2 2538.24 1084.6 2526.24 1084.6H2476.64V1159.4ZM2808.88 1261.4H2714.08L2697.28 1315H2642.08L2740.08 1039H2782.88L2881.28 1315H2825.68L2808.88 1261.4ZM2794.88 1217.8L2761.28 1111.8L2728.08 1217.8H2794.88ZM2892.91 1208.2V1145C2892.91 1071.8 2926.51 1035 2994.11 1035C3024.11 1035 3048.11 1043 3066.11 1059C3083.71 1075 3092.91 1096.6 3092.91 1124.6V1127.4H3040.51V1124.6C3040.51 1112.2 3036.11 1101.8 3028.11 1093.4C3020.11 1085.4 3008.51 1081 2993.71 1081C2976.91 1081 2964.51 1086.2 2956.91 1096.6C2949.31 1107 2945.71 1124.2 2945.71 1147.8V1207.4C2945.71 1230.2 2949.71 1246.6 2957.71 1256.6C2965.71 1266.6 2978.51 1271.4 2995.71 1271.4C3011.71 1271.4 3023.31 1267.4 3030.51 1259C3037.71 1251 3041.71 1238.2 3041.71 1221.4V1208.2H2992.91V1165H3092.91V1212.2C3092.91 1283 3059.71 1318.2 2993.31 1318.2C2926.11 1318.2 2892.91 1281.8 2892.91 1208.2Z" fill="#1D0B42"/>
</g>
<defs>
<clipPath id="clip0_1158_315">
<rect width="4096" height="2365" fill="white"/>
</clipPath>
</defs>
</svg>
