<svg width="591" height="355" viewBox="0 0 591 355" fill="none" xmlns="http://www.w3.org/2000/svg">
<path d="M194.914 294.93C196.843 293.852 198.398 292.796 199.51 291.775L204.73 287.02C211.642 280.721 233.113 267.353 246.857 267.353H581.768C587.544 267.353 590.858 268.567 590.858 270.666V290.561C590.858 292.331 588.52 294.601 584.287 296.95L497.345 345.148C487.676 350.504 470.868 354.851 459.815 354.851H106.825C95.7714 354.851 94.6366 350.504 104.317 345.148L194.914 294.93Z" fill="#0029B9"/>
<path d="M190.295 277.056C199.964 271.699 216.772 267.353 227.825 267.353H580.815C591.88 267.353 593.003 271.699 583.334 277.056L498.571 324.051C493.736 326.729 485.338 328.897 479.8 328.897H116.801C105.747 328.897 104.624 324.55 114.293 319.193L190.295 277.056Z" fill="#315EFE"/>
<path d="M180.376 216.203C186.947 207.306 201.235 200.1 212.289 200.1H565.278C576.343 200.1 579.975 207.306 573.415 216.203L488.913 330.655C482.354 339.552 468.065 346.759 457.012 346.759H104.011C92.9573 346.759 89.3144 339.552 95.8853 330.655L180.376 216.203Z" fill="#9BB1FF"/>
<path d="M155.488 94.1484C158.2 83.4239 169.356 74.7422 180.409 74.7422H533.399C544.453 74.7422 551.228 83.4239 548.527 94.1484L488.674 331.381C485.973 342.095 474.817 350.788 463.763 350.788H110.762C99.7089 350.788 92.9338 342.095 95.6461 331.381L155.488 94.1484Z" fill="#CDD8FE"/>
<path d="M6.77251 8.82931C9.07629 3.3252 14.5531 0 21.3238 0H385.753C396.806 0 407.962 8.69307 410.663 19.4062L488.288 327.069C489.911 333.527 488.129 341.823 483.522 345.431L479.05 348.938C476.122 351.231 472.253 352.388 467.985 352.241L115.858 351.628C105.599 351.276 95.374 341.312 92.0942 331.484L37.5864 177.096L0.1596 31.7763C-0.800499 28.0086 2.82995 18.2601 4.15207 15.0938L6.77251 8.82931Z" fill="#0029B9"/>
<path d="M1.51618 36.7129C-1.18821 25.9884 5.58125 17.3066 16.6371 17.3066H369.638C380.692 17.3066 391.848 25.9884 394.549 36.7129L469.87 335.285C472.582 346.01 465.807 354.692 454.753 354.692H101.752C90.6988 354.692 79.5429 346.01 76.8419 335.285L1.51618 36.7129Z" fill="#315EFE"/>
<path d="M158.494 169.538C185.358 169.538 201.132 148.605 193.728 122.781C186.323 96.9582 158.543 76.0244 131.679 76.0244C104.816 76.0244 89.041 96.9582 96.4456 122.781C103.85 148.605 131.63 169.538 158.494 169.538Z" fill="#0029B9"/>
<path d="M145.273 177.018C172.136 177.018 187.911 156.084 180.506 130.261C173.102 104.438 145.322 83.5039 118.458 83.5039C91.5942 83.5039 75.8195 104.438 83.2242 130.261C90.6288 156.084 118.409 177.018 145.273 177.018Z" fill="#4870FF"/>
<path d="M196.227 300.492C223.091 300.492 238.866 279.558 231.461 253.735C224.056 227.911 196.276 206.978 169.413 206.978C142.549 206.978 126.774 227.911 134.179 253.735C141.584 279.558 169.364 300.492 196.227 300.492Z" fill="#0029B9"/>
<path d="M183.007 307.982C209.871 307.982 225.646 287.048 218.241 261.225C210.836 235.402 183.056 214.468 156.193 214.468C129.329 214.468 113.554 235.402 120.959 261.225C128.363 287.048 156.143 307.982 183.007 307.982Z" fill="#4870FF"/>
<path d="M304.892 169.538C331.756 169.538 347.531 148.605 340.126 122.781C332.721 96.9582 304.941 76.0244 278.078 76.0244C251.214 76.0244 235.439 96.9582 242.844 122.781C250.248 148.605 278.028 169.538 304.892 169.538Z" fill="#0029B9"/>
<path d="M291.671 177.018C318.534 177.018 334.309 156.084 326.904 130.261C319.5 104.438 291.72 83.5039 264.856 83.5039C237.992 83.5039 222.218 104.438 229.622 130.261C237.027 156.084 264.807 177.018 291.671 177.018Z" fill="#4870FF"/>
<path d="M342.615 300.492C369.479 300.492 385.253 279.558 377.849 253.735C370.444 227.911 342.664 206.978 315.8 206.978C288.937 206.978 273.162 227.911 280.567 253.735C287.971 279.558 315.751 300.492 342.615 300.492Z" fill="#0029B9"/>
<path d="M329.394 307.982C356.257 307.982 372.032 287.048 364.627 261.225C357.223 235.402 329.443 214.468 302.579 214.468C275.715 214.468 259.941 235.402 267.345 261.225C274.75 287.048 302.53 307.982 329.394 307.982Z" fill="#4870FF"/>
</svg>